# xmcd
#
# Track frame offsets:
#	150
#	37627
#	66043
#	95018
#	121367
#	151878
#	174173
#	200945
#	240361
#	268160
#	303195
#
# Disc length: 4310 seconds
#
# Revision: 1
# Processed by: cddbd v1.5.1PL0 Copyright (c) Steve Scherf et al.
# Submitted via: CDex 1.50Beta5
#
DISCID=8810d40b
DTITLE=平井 堅 - Kh re-mixed up 1
DYEAR=1900
DGENRE=
TTITLE0=KISS OF LIFE
TTITLE1=メリー・ゴーランド・ハイウェイ
TTITLE2=wonderful world
TTITLE3=TABOO
TTITLE4=楽園
TTITLE5=One Love Wonderful World
TTITLE6=LOVE OR LUST
TTITLE7=TUG OF WAR
TTITLE8=why
TTITLE9=Miracles
TTITLE10=L'Amant
EXTD=
EXTT0=
EXTT1=
EXTT2=
EXTT3=
EXTT4=
EXTT5=
EXTT6=
EXTT7=
EXTT8=
EXTT9=
EXTT10=
PLAYORDER=
